<svg width="600" height="600" viewBox="0 0 600 600" fill="none" xmlns="http://www.w3.org/2000/svg">
<g clip-path="url(#clip0_24_1190)">
<path d="M562.81 -0.000976562C583.35 -0.000976562 600 16.6496 600 37.189V562.808C600 583.348 583.35 599.998 562.81 599.998H102.648C70.9588 599.998 55.9174 564.848 78.7774 542.903C88.7346 533.344 98.9166 523.456 108.951 513.126C132.912 489.166 541.512 116.5 549.498 83.2262C550.829 79.233 550.829 63.2625 541.513 55.2768C532.196 47.2911 518.887 49.9528 508.239 52.6147C496.354 54.7757 346.753 153.425 58.0138 347.851C33.3025 364.49 0.000976562 346.804 0.000976562 317.012V37.189C0.000976562 16.6496 16.6515 -0.000976562 37.191 -0.000976562H562.81Z" fill="#0077FF"/>
</g>
<defs>
<clipPath id="clip0_24_1190">
<rect width="600" height="600" rx="80" fill="none"/>
</clipPath>
</defs>
</svg>
