<svg width="600" height="600" viewBox="0 0 600 600" fill="none" xmlns="http://www.w3.org/2000/svg">
<g clip-path="url(#clip0_24_1182)">
<rect width="600" height="600" rx="80" fill="#0077FF"/>
<path d="M291.902 -66.5859C649.425 -215.822 724.581 -191.589 772.895 -192.663C783.631 -192.663 807.251 -190.515 823.355 -177.632C836.239 -166.896 839.46 -152.938 841.607 -142.202C843.755 -131.466 845.901 -108.918 843.754 -91.7402C824.428 112.252 740.685 607.199 697.739 834.812C679.487 931.439 644.057 963.649 609.7 966.87C534.546 973.312 477.643 917.482 405.709 870.242C291.903 796.161 228.558 749.994 117.973 676.986C92.3201 660.172 75.1513 644.873 64.6842 630.549C54.122 616.096 67.3943 599.998 85.2956 599.998H570C586.569 599.998 600 586.567 600 569.998V29.9981C600 13.4295 586.569 -0.00195312 570 -0.00195312H281.328C248.716 -0.00195312 239.596 -44.5576 269.645 -57.23C277.454 -60.5234 284.873 -63.6421 291.902 -66.5859ZM512 57.998C528.569 57.998 542 71.4295 542 87.998V511.998C542 528.567 528.569 541.998 512 541.998H140.803C115.24 541.998 103.107 513.644 121.547 495.941C129.58 488.23 137.793 480.254 145.888 471.921C165.217 452.592 494.821 151.976 501.263 125.135C502.336 121.914 502.336 109.031 494.821 102.589C487.306 96.147 476.569 98.2941 467.979 100.441C458.389 102.186 337.712 181.764 104.797 338.6C84.8633 352.022 58 337.755 58 313.724V87.998C58 71.4295 71.4315 57.998 88 57.998H512ZM0 393.317C0 403.286 -4.95192 412.603 -13.2141 418.182C-33.2746 431.727 -53.9644 445.703 -75.2832 460.111C-126.818 495.541 -172.985 512.72 -214.856 511.646C-261.023 510.573 -349.061 485.878 -415.627 464.405C-496.15 438.638 -560.568 424.681 -555.2 379.588C-551.979 355.968 -519.77 282.348 -459.646 257.654C-296.838 186.949 -157.609 126.523 -41.8734 76.4619C-22.0709 67.8965 0 82.4264 0 104.002V393.317Z" fill="white"/>
</g>
<defs>
<clipPath id="clip0_24_1182">
<rect width="600" height="600" rx="80" fill="white"/>
</clipPath>
</defs>
</svg>
