<svg width="600" height="600" viewBox="0 0 600 600" fill="none" xmlns="http://www.w3.org/2000/svg">
<path d="M311.495 248.498C311.495 270.589 329.404 288.498 351.495 288.498H520.396C526.747 288.498 531.896 293.647 531.896 299.998C531.896 306.349 526.747 311.498 520.396 311.498H351.495C329.404 311.498 311.495 329.407 311.495 351.498V520.397C311.495 526.748 306.346 531.897 299.995 531.897C293.644 531.897 288.495 526.748 288.495 520.397V351.498C288.495 329.407 270.587 311.498 248.495 311.498H79.6045C73.2532 311.498 68.1045 306.349 68.1045 299.998C68.1045 293.647 73.2532 288.498 79.6045 288.498H248.495C270.587 288.498 288.495 270.589 288.495 248.498V79.6055C288.495 73.2542 293.644 68.1055 299.995 68.1055C306.346 68.1055 311.495 73.2542 311.495 79.6055V248.498Z" fill="#525252"/>
<path d="M372.495 227.498H520.396V288.498H351.495C329.404 288.498 311.495 270.589 311.495 248.498V79.6055C311.495 73.2542 306.346 68.1055 299.995 68.1055C293.644 68.1055 288.495 73.2542 288.495 79.6055V248.498C288.495 270.589 270.587 288.498 248.495 288.498H79.6045L79.0127 288.513C72.9364 288.821 68.1045 293.845 68.1045 299.998C68.1045 306.151 72.9364 311.175 79.0127 311.483L79.6045 311.498H248.495C270.587 311.498 288.495 329.407 288.495 351.498V520.396C288.495 526.748 293.644 531.896 299.995 531.896C306.346 531.896 311.495 526.748 311.495 520.396V351.498C311.495 329.407 329.404 311.498 351.495 311.498H520.396C526.747 311.498 531.896 306.349 531.896 299.998C531.896 293.845 527.064 288.821 520.987 288.513L520.396 288.498V227.498C560.436 227.498 592.896 259.957 592.896 299.998C592.896 340.039 560.436 372.498 520.396 372.498H372.495V520.396C372.495 560.437 340.036 592.896 299.995 592.896C259.954 592.896 227.495 560.437 227.495 520.396V372.498H79.6045C39.5638 372.498 7.10449 340.039 7.10449 299.998C7.10449 259.957 39.5638 227.498 79.6045 227.498H227.495V79.6055C227.495 39.5649 259.954 7.10547 299.995 7.10547C340.036 7.10547 372.495 39.5648 372.495 79.6055V227.498Z" fill="#D8D8D8"/>
</svg>
