<svg width="600" height="600" viewBox="0 0 600 600" fill="none" xmlns="http://www.w3.org/2000/svg">
<path d="M311.494 248.495C311.494 270.587 329.403 288.495 351.494 288.495H573.666C580.017 288.495 585.166 293.644 585.166 299.995C585.166 306.346 580.017 311.495 573.666 311.495H351.494C329.403 311.495 311.494 329.404 311.494 351.495V573.666C311.494 580.017 306.345 585.166 299.994 585.166C293.643 585.166 288.494 580.017 288.494 573.666V351.495C288.494 329.404 270.586 311.495 248.494 311.495H26.334C19.9827 311.495 14.834 306.346 14.834 299.995C14.834 293.644 19.9827 288.495 26.334 288.495H248.494C270.586 288.495 288.494 270.587 288.494 248.495V26.334C288.494 19.9827 293.643 14.834 299.994 14.834C306.345 14.834 311.494 19.9827 311.494 26.334V248.495Z" fill="#0077FF"/>
</svg>
