<svg width="24" height="24" viewBox="0 0 24 24" fill="none" xmlns="http://www.w3.org/2000/svg">
<path d="M2.9375 12C2.9375 6.99546 6.99448 2.93848 11.999 2.93848V2.93848C17.0036 2.93848 21.0605 6.99546 21.0605 12V17.7664C21.0605 18.7254 21.0605 19.2049 20.9177 19.5878C20.6881 20.2035 20.2025 20.6891 19.5868 20.9187C19.2039 21.0615 18.7244 21.0615 17.7654 21.0615H11.999C6.99448 21.0615 2.9375 17.0045 2.9375 12V12Z" stroke="white" stroke-width="2"/>
<path d="M12.3128 17.0547C11.5983 17.0547 11.1856 16.6297 11.1856 15.8783V9.85442H9.62732C9.02371 9.85442 8.61719 9.52182 8.61719 8.94284C8.61719 8.36386 9.01139 8.03125 9.62732 8.03125H15.0045C15.6142 8.03125 16.0084 8.36386 16.0084 8.94284C16.0084 9.52182 15.6019 9.85442 15.0045 9.85442H13.44V15.8783C13.44 16.6297 13.0273 17.0547 12.3128 17.0547Z" fill="white"/>
</svg>
