<svg width="24" height="24" viewBox="0 0 24 24" fill="none" xmlns="http://www.w3.org/2000/svg">
<path d="M3.5 15.5L5.41016 13.5908C6.7558 12.2452 7.42839 11.5722 8.15723 11.5107C8.52416 11.4798 8.89249 11.5508 9.22168 11.7158C9.87545 12.0437 10.2504 12.918 11 14.667L11.0537 14.792C11.3795 15.5521 11.5424 15.9323 11.8105 16.0986C12.0191 16.2277 12.2682 16.2757 12.5098 16.2334C12.8207 16.1788 13.1139 15.8861 13.6992 15.3008L13.8125 15.1875C14.5336 14.4664 14.8948 14.1061 15.3037 13.9541C15.753 13.7872 16.247 13.7872 16.6963 13.9541C17.1052 14.1061 17.4664 14.4664 18.1875 15.1875L18.9395 15.9395C19.6186 16.6186 20.5396 17 21.5 17V4.19043C21.9994 5.39198 22 7.16189 22 10V14C22 17.7712 21.9997 19.6575 20.8281 20.8291C19.6565 22.0003 17.7709 22 14 22H10C6.22913 22 4.34347 22.0003 3.17188 20.8291C2.0003 19.6575 2 17.7712 2 14V10C2 6.22896 2.00033 4.34342 3.17188 3.17188C3.27545 3.06831 3.38445 2.97376 3.5 2.8877V15.5Z" fill="white"/>
<path d="M10 3H14C15.9139 3 17.2487 3.00229 18.2559 3.1377C19.2342 3.26923 19.7521 3.50989 20.1211 3.87891C20.4901 4.24792 20.7308 4.7658 20.8623 5.74414C20.9977 6.75127 21 8.08611 21 10V14C21 15.9139 20.9977 17.2487 20.8623 18.2559C20.7308 19.2342 20.4901 19.7521 20.1211 20.1211C19.7521 20.4901 19.2342 20.7308 18.2559 20.8623C17.2487 20.9977 15.9139 21 14 21H10C8.08611 21 6.75127 20.9977 5.74414 20.8623C4.7658 20.7308 4.24792 20.4901 3.87891 20.1211C3.50989 19.7521 3.26923 19.2342 3.1377 18.2559C3.00229 17.2487 3 15.9139 3 14V10C3 8.08611 3.00229 6.75127 3.1377 5.74414C3.26923 4.7658 3.50989 4.24792 3.87891 3.87891C4.24792 3.50989 4.7658 3.26923 5.74414 3.1377C6.75127 3.00229 8.08611 3 10 3Z" stroke="white" stroke-width="2"/>
<circle cx="15" cy="9" r="2" fill="white"/>
</svg>
