<svg width="600" height="600" viewBox="0 0 600 600" fill="none" xmlns="http://www.w3.org/2000/svg">
<g clip-path="url(#clip0_24_1186)">
<rect width="600" height="600" rx="80" fill="#D8D8D8"/>
<path d="M291.902 -66.585C649.425 -215.821 724.58 -191.588 772.894 -192.662C783.63 -192.662 807.25 -190.515 823.354 -177.632C836.238 -166.895 839.459 -152.938 841.606 -142.201C843.754 -131.465 845.901 -108.918 843.754 -91.7402C824.428 112.252 740.684 607.201 697.738 834.812C679.486 931.44 644.057 963.649 609.7 966.87C534.545 973.312 477.642 917.483 405.708 870.243C291.902 796.162 228.557 749.995 117.972 676.987C92.3196 660.173 75.1512 644.874 64.6843 630.551C54.1222 616.097 67.3946 599.999 85.296 599.999H570C586.569 599.999 600 586.568 600 569.999V29.999C600 13.4305 586.569 -0.000976562 570 -0.000976562H281.325C248.713 -0.000976562 239.593 -44.5559 269.642 -57.228C277.452 -60.5217 284.872 -63.6408 291.902 -66.585ZM512 57.999C528.569 57.999 542 71.4305 542 87.999V511.999C542 528.568 528.569 541.999 512 541.999H140.802C115.239 541.999 103.106 513.645 121.546 495.942C129.579 488.231 137.792 480.255 145.887 471.922C165.212 452.596 494.817 151.979 501.262 125.136C502.335 121.915 502.336 109.031 494.82 102.589C487.305 96.1471 476.569 98.2942 467.979 100.441C458.392 102.185 337.714 181.763 104.797 338.6C84.8634 352.022 58 337.755 58 313.724V87.999C58 71.4305 71.4315 57.999 88 57.999H512ZM0 393.317C0 403.286 -4.95192 412.603 -13.2141 418.182C-33.2747 431.727 -53.9643 445.703 -75.2832 460.111C-126.818 495.541 -172.985 512.72 -214.857 511.646C-261.024 510.573 -349.062 485.879 -415.628 464.406C-496.151 438.639 -560.569 424.682 -555.201 379.589C-551.98 355.969 -519.771 282.348 -459.647 257.654C-296.839 186.949 -157.609 126.524 -41.8734 76.4629C-22.0709 67.8975 0 82.4274 0 104.003V393.317Z" fill="#494949"/>
</g>
<defs>
<clipPath id="clip0_24_1186">
<rect width="600" height="600" rx="80" fill="white"/>
</clipPath>
</defs>
</svg>
