<svg width="600" height="600" viewBox="0 0 600 600" fill="none" xmlns="http://www.w3.org/2000/svg">
<g clip-path="url(#clip0_31_5260)">
<path d="M600 581C600 591.493 591.493 600 581 600H19C8.50657 600 0 591.493 0 581V19C0 8.50657 8.50659 0 19 0H581C591.493 0 600 8.50659 600 19V581ZM299.995 42.2861C293.644 42.2861 288.495 47.4349 288.495 53.7861V248.495C288.495 270.587 270.587 288.495 248.495 288.495H53.7861C47.4349 288.495 42.2861 293.644 42.2861 299.995C42.2861 306.346 47.4349 311.495 53.7861 311.495H248.495C270.587 311.495 288.495 329.404 288.495 351.495V546.214C288.495 552.565 293.644 557.714 299.995 557.714C306.346 557.714 311.495 552.565 311.495 546.214V351.495C311.495 329.404 329.404 311.495 351.495 311.495H546.214C552.565 311.495 557.714 306.346 557.714 299.995C557.714 293.644 552.565 288.495 546.214 288.495H351.495C329.404 288.495 311.495 270.587 311.495 248.495V53.7861C311.495 47.4349 306.346 42.2861 299.995 42.2861Z" fill="#ADADAD"/>
</g>
<defs>
<clipPath id="clip0_31_5260">
<rect width="600" height="600" fill="white"/>
</clipPath>
</defs>
</svg>
