<svg width="600" height="600" viewBox="0 0 600 600" fill="none" xmlns="http://www.w3.org/2000/svg">
<g clip-path="url(#clip0_24_1167)">
<circle cx="300" cy="300" r="300" fill="#0077FF"/>
<path d="M311.495 248.498C311.495 270.589 329.404 288.498 351.495 288.498H520.396C526.747 288.498 531.896 293.647 531.896 299.998C531.896 306.349 526.747 311.498 520.396 311.498H351.495C329.404 311.498 311.495 329.407 311.495 351.498V520.396C311.495 526.748 306.346 531.896 299.995 531.896C293.644 531.896 288.495 526.748 288.495 520.396V351.498C288.495 329.407 270.587 311.498 248.495 311.498H79.6045C73.2532 311.498 68.1045 306.349 68.1045 299.998C68.1045 293.647 73.2532 288.498 79.6045 288.498H248.495C270.587 288.498 288.495 270.589 288.495 248.498V79.6055C288.495 73.2542 293.644 68.1055 299.995 68.1055C306.346 68.1055 311.495 73.2542 311.495 79.6055V248.498Z" fill="white"/>
</g>
<defs>
<clipPath id="clip0_24_1167">
<rect width="600" height="600" fill="white"/>
</clipPath>
</defs>
</svg>
