<svg width="600" height="600" viewBox="0 0 600 600" fill="none" xmlns="http://www.w3.org/2000/svg">
<mask id="path-1-outside-1_24_1172" maskUnits="userSpaceOnUse" x="7.10449" y="7.10547" width="586" height="586" fill="black">
<rect fill="white" x="7.10449" y="7.10547" width="586" height="586"/>
<path d="M311.495 248.498C311.495 270.589 329.404 288.498 351.495 288.498H520.396C526.747 288.498 531.896 293.647 531.896 299.998C531.896 306.349 526.747 311.498 520.396 311.498H351.495C329.404 311.498 311.495 329.407 311.495 351.498V520.396C311.495 526.748 306.346 531.896 299.995 531.896C293.644 531.896 288.495 526.748 288.495 520.396V351.498C288.495 329.407 270.587 311.498 248.495 311.498H79.6045C73.2532 311.498 68.1045 306.349 68.1045 299.998C68.1045 293.647 73.2532 288.498 79.6045 288.498H248.495C270.587 288.498 288.495 270.589 288.495 248.498V79.6055C288.495 73.2542 293.644 68.1055 299.995 68.1055C306.346 68.1055 311.495 73.2542 311.495 79.6055V248.498Z"/>
</mask>
<path d="M311.495 248.498C311.495 270.589 329.404 288.498 351.495 288.498H520.396C526.747 288.498 531.896 293.647 531.896 299.998C531.896 306.349 526.747 311.498 520.396 311.498H351.495C329.404 311.498 311.495 329.407 311.495 351.498V520.396C311.495 526.748 306.346 531.896 299.995 531.896C293.644 531.896 288.495 526.748 288.495 520.396V351.498C288.495 329.407 270.587 311.498 248.495 311.498H79.6045C73.2532 311.498 68.1045 306.349 68.1045 299.998C68.1045 293.647 73.2532 288.498 79.6045 288.498H248.495C270.587 288.498 288.495 270.589 288.495 248.498V79.6055C288.495 73.2542 293.644 68.1055 299.995 68.1055C306.346 68.1055 311.495 73.2542 311.495 79.6055V248.498Z" fill="#525252"/>
<path d="M351.495 288.498V349.498H520.396V288.498V227.498H351.495V288.498ZM520.396 311.498V250.498H351.495V311.498V372.498H520.396V311.498ZM311.495 351.498H250.495V520.396H311.495H372.495V351.498H311.495ZM288.495 520.396H349.495V351.498H288.495H227.495V520.396H288.495ZM248.495 311.498V250.498H79.6045V311.498V372.498H248.495V311.498ZM79.6045 288.498V349.498H248.495V288.498V227.498H79.6045V288.498ZM288.495 248.498H349.495V79.6055H288.495H227.495V248.498H288.495ZM311.495 79.6055H250.495V248.498H311.495H372.495V79.6055H311.495ZM299.995 68.1055V129.105C272.657 129.105 250.495 106.944 250.495 79.6055H311.495H372.495C372.495 39.5648 340.036 7.10547 299.995 7.10547V68.1055ZM288.495 79.6055H349.495C349.495 106.944 327.333 129.105 299.995 129.105V68.1055V7.10547C259.954 7.10547 227.495 39.5649 227.495 79.6055H288.495ZM248.495 288.498V349.498C304.276 349.498 349.495 304.279 349.495 248.498H288.495H227.495C227.495 236.9 236.897 227.498 248.495 227.498V288.498ZM68.1045 299.998H129.104C129.104 327.336 106.943 349.498 79.6045 349.498V288.498V227.498C39.5638 227.498 7.10449 259.957 7.10449 299.998H68.1045ZM79.6045 311.498V250.498C106.943 250.498 129.104 272.66 129.104 299.998H68.1045H7.10449C7.10449 340.039 39.5638 372.498 79.6045 372.498V311.498ZM288.495 351.498H349.495C349.495 295.717 304.276 250.498 248.495 250.498V311.498V372.498C236.897 372.498 227.495 363.096 227.495 351.498H288.495ZM299.995 531.896V470.896C327.333 470.896 349.495 493.058 349.495 520.396H288.495H227.495C227.495 560.437 259.954 592.896 299.995 592.896V531.896ZM311.495 520.396H250.495C250.495 493.058 272.657 470.896 299.995 470.896V531.896V592.896C340.036 592.896 372.495 560.437 372.495 520.396H311.495ZM351.495 311.498V250.498C295.714 250.498 250.495 295.717 250.495 351.498H311.495H372.495C372.495 363.096 363.093 372.498 351.495 372.498V311.498ZM531.896 299.998H470.896C470.896 272.66 493.057 250.498 520.396 250.498V311.498V372.498C560.436 372.498 592.896 340.039 592.896 299.998H531.896ZM520.396 288.498V349.498C493.057 349.498 470.896 327.336 470.896 299.998H531.896H592.896C592.896 259.957 560.436 227.498 520.396 227.498V288.498ZM351.495 288.498V227.498C363.093 227.498 372.495 236.9 372.495 248.498H311.495H250.495C250.495 304.279 295.714 349.498 351.495 349.498V288.498Z" fill="#D8D8D8" mask="url(#path-1-outside-1_24_1172)"/>
</svg>
