<svg width="600" height="600" viewBox="0 0 600 600" fill="none" xmlns="http://www.w3.org/2000/svg">
<g clip-path="url(#clip0_24_1212)">
<path d="M514.784 0C559.505 0.000259739 595.758 36.254 595.758 80.9746V172.46C595.758 206.771 574.417 236.096 544.286 247.89C574.895 261.033 595.758 291.589 595.758 326.485V515.234C595.758 559.816 559.617 595.957 515.035 595.957H84.9209C40.2003 595.957 3.94664 559.704 3.94629 514.983V423.498C3.94629 389.127 25.3618 359.758 55.5771 348.005C25.0472 334.827 4.25105 304.312 4.25098 269.471V80.7227C4.25114 36.1406 40.3921 0.000233533 84.9736 0H514.784ZM84.9736 34.3828C60.384 34.383 40.2714 53.536 38.7324 77.7373C38.6697 78.7244 38.6338 79.7197 38.6338 80.7227V269.471C38.6338 270.085 38.6458 270.698 38.667 271.308C38.7174 272.758 38.8269 274.194 38.9941 275.612C39.0215 275.845 39.0506 276.076 39.0811 276.308C39.1398 276.754 39.2073 277.198 39.2773 277.641C39.3566 278.142 39.4416 278.641 39.5352 279.138C39.7859 280.468 40.0851 281.781 40.4355 283.073C40.7532 284.245 41.1113 285.4 41.5078 286.536C41.6601 286.973 41.8189 287.406 41.9824 287.837C42.8256 290.059 43.8164 292.208 44.9463 294.269C45.5223 295.319 46.1344 296.347 46.7803 297.351C47.2109 298.02 47.6567 298.678 48.1172 299.325C48.3474 299.649 48.5809 299.969 48.8184 300.287C50.9563 303.147 53.3879 305.773 56.0713 308.119C56.3695 308.38 56.6712 308.637 56.9756 308.891C57.5843 309.398 58.2052 309.891 58.8379 310.37C59.7866 311.088 60.7617 311.773 61.7617 312.424C64.4291 314.159 67.2735 315.649 70.2656 316.86C70.6396 317.012 71.016 317.159 71.3945 317.302C76.3159 319.157 81.6178 320.267 87.1738 320.494C92.9832 320.732 98.9991 320.97 105.132 321.207C148.063 322.866 196.719 324.496 220.325 325.912C242.303 327.158 251.44 333.044 254.077 342.09L254.198 342.523C257.214 353.866 250.385 370.032 245.801 388.188C243.499 396.777 196.678 544.62 199.227 553.227C199.448 554.308 201.543 557.935 204.706 558.527C207.869 559.119 210.543 556.769 212.612 554.769C215.589 552.242 249.716 479.438 309.995 355.561C312.259 350.813 314.621 346.469 317.085 342.523H317.086C321.132 336.042 325.454 330.637 330.076 326.296C330.214 326.167 330.352 326.039 330.49 325.911C330.836 325.593 331.183 325.28 331.532 324.974C331.736 324.794 331.94 324.616 332.146 324.44C332.375 324.244 332.605 324.05 332.836 323.859C335.436 321.708 338.129 319.876 340.916 318.36C354.089 311.158 382.892 303.799 405.125 299.024C431.986 293.19 452.393 286.648 458.212 300.217C461.144 307.391 455.915 319.277 443.001 336.004C393.463 402.888 344.28 470.07 294.008 536.412C286.19 546.728 293.533 561.574 306.477 561.574H515.035L515.634 561.57C515.789 561.568 515.943 561.564 516.098 561.561L516.23 561.56C516.277 561.558 516.323 561.555 516.369 561.554C516.694 561.545 517.017 561.532 517.34 561.517C517.359 561.516 517.378 561.516 517.396 561.515C517.461 561.511 517.526 561.505 517.591 561.502C518.315 561.463 519.036 561.408 519.751 561.336C519.809 561.33 519.867 561.322 519.925 561.316C520.257 561.282 520.589 561.245 520.919 561.203C520.974 561.196 521.03 561.187 521.085 561.18C521.395 561.139 521.704 561.097 522.012 561.051C522.158 561.029 522.303 561.004 522.448 560.98C522.682 560.943 522.916 560.905 523.149 560.864C523.313 560.835 523.476 560.804 523.639 560.773C523.839 560.736 524.039 560.698 524.238 560.658C524.438 560.618 524.638 560.574 524.837 560.531C525.003 560.495 525.169 560.46 525.335 560.423C525.538 560.377 525.74 560.328 525.941 560.279C526.11 560.239 526.278 560.199 526.446 560.156C526.623 560.112 526.799 560.064 526.975 560.018C527.169 559.966 527.364 559.914 527.558 559.859C527.725 559.812 527.892 559.764 528.059 559.715C528.256 559.657 528.452 559.599 528.648 559.539C528.792 559.495 528.936 559.449 529.079 559.403C529.302 559.333 529.524 559.261 529.745 559.188C529.872 559.145 529.999 559.101 530.125 559.058C530.353 558.979 530.58 558.899 530.807 558.817C530.938 558.77 531.069 558.722 531.2 558.673C531.409 558.595 531.616 558.516 531.823 558.436C531.98 558.374 532.137 558.313 532.293 558.25C532.468 558.18 532.643 558.109 532.817 558.036C532.991 557.964 533.165 557.891 533.338 557.816C533.512 557.741 533.686 557.665 533.859 557.588C534.017 557.518 534.174 557.447 534.33 557.375C534.528 557.284 534.725 557.192 534.922 557.099C535.047 557.039 535.171 556.979 535.296 556.918C535.504 556.817 535.712 556.714 535.918 556.609C536.042 556.547 536.165 556.484 536.288 556.42C536.493 556.314 536.697 556.206 536.9 556.097C537.02 556.033 537.14 555.969 537.259 555.903C537.449 555.799 537.639 555.693 537.828 555.586C537.98 555.5 538.131 555.415 538.281 555.327C538.429 555.241 538.576 555.153 538.723 555.065C538.888 554.967 539.054 554.869 539.219 554.769C539.375 554.673 539.529 554.575 539.684 554.478C539.839 554.38 539.995 554.282 540.149 554.183C540.31 554.079 540.468 553.974 540.627 553.868C540.776 553.769 540.925 553.67 541.073 553.569C541.239 553.456 541.404 553.342 541.568 553.227C541.697 553.136 541.827 553.047 541.955 552.955C542.097 552.854 542.237 552.75 542.377 552.647C542.545 552.524 542.713 552.401 542.88 552.275C542.977 552.202 543.073 552.127 543.17 552.053C543.354 551.912 543.539 551.772 543.721 551.628C543.872 551.508 544.022 551.386 544.172 551.265C544.301 551.16 544.431 551.055 544.56 550.949C545.068 550.528 545.567 550.095 546.058 549.653C546.107 549.608 546.158 549.565 546.208 549.52C546.333 549.406 546.456 549.289 546.58 549.174C546.887 548.889 547.19 548.6 547.489 548.307C547.852 547.95 548.211 547.59 548.562 547.222C548.689 547.089 548.813 546.954 548.938 546.819C549.065 546.684 549.192 546.548 549.316 546.411C549.421 546.296 549.524 546.179 549.628 546.062C549.768 545.905 549.909 545.748 550.047 545.589C550.154 545.466 550.259 545.34 550.364 545.216C550.487 545.071 550.611 544.927 550.732 544.781C550.872 544.613 551.009 544.442 551.146 544.271C551.242 544.152 551.34 544.034 551.435 543.914C551.543 543.777 551.647 543.637 551.754 543.499C551.874 543.343 551.995 543.188 552.113 543.03C552.229 542.876 552.342 542.721 552.456 542.565C552.55 542.437 552.644 542.308 552.737 542.179C552.845 542.029 552.95 541.878 553.056 541.727C553.168 541.566 553.28 541.405 553.391 541.242C553.486 541.102 553.579 540.96 553.673 540.818C553.774 540.666 553.876 540.513 553.976 540.359C554.087 540.188 554.196 540.015 554.305 539.842C554.395 539.699 554.484 539.555 554.572 539.411C554.664 539.261 554.754 539.11 554.845 538.959C554.942 538.795 555.04 538.632 555.136 538.467C555.228 538.308 555.318 538.149 555.408 537.989C555.499 537.828 555.59 537.666 555.679 537.504C555.762 537.352 555.844 537.2 555.926 537.047C556.02 536.87 556.114 536.693 556.206 536.515C556.281 536.37 556.354 536.225 556.428 536.08C556.521 535.896 556.613 535.711 556.704 535.525C556.781 535.369 556.856 535.211 556.931 535.054C557.008 534.891 557.084 534.727 557.159 534.563C557.242 534.383 557.324 534.202 557.404 534.021C557.474 533.864 557.543 533.707 557.61 533.55C557.685 533.376 557.759 533.203 557.832 533.028C557.907 532.847 557.981 532.666 558.054 532.483C558.118 532.323 558.182 532.162 558.245 532C558.316 531.819 558.385 531.637 558.453 531.454C558.513 531.293 558.573 531.131 558.632 530.969C558.702 530.774 558.77 530.578 558.838 530.382C558.893 530.222 558.948 530.062 559.002 529.901C559.067 529.707 559.13 529.513 559.192 529.317C559.242 529.161 559.292 529.005 559.34 528.849C559.406 528.633 559.469 528.416 559.532 528.199C559.573 528.058 559.616 527.917 559.655 527.775C559.711 527.577 559.764 527.377 559.817 527.178C559.863 527.005 559.909 526.833 559.953 526.659C560.008 526.443 560.06 526.227 560.111 526.01C560.144 525.871 560.178 525.732 560.21 525.593C560.259 525.378 560.305 525.162 560.352 524.946C560.387 524.782 560.423 524.617 560.456 524.452C560.5 524.236 560.539 524.019 560.58 523.802C560.609 523.649 560.638 523.497 560.665 523.344C560.699 523.153 560.729 522.961 560.761 522.769C560.793 522.57 560.827 522.371 560.856 522.172C560.885 521.984 560.91 521.797 560.936 521.608C560.96 521.432 560.986 521.256 561.008 521.079C561.036 520.856 561.06 520.633 561.085 520.409C561.104 520.242 561.124 520.076 561.141 519.908C561.17 519.614 561.196 519.32 561.22 519.024C561.226 518.942 561.234 518.86 561.24 518.777C561.271 518.366 561.297 517.953 561.317 517.538C561.355 516.775 561.375 516.007 561.375 515.234V326.485C561.375 322.773 560.982 319.15 560.24 315.657C560.216 315.544 560.194 315.43 560.169 315.317C560.111 315.053 560.048 314.791 559.986 314.528C559.955 314.395 559.925 314.26 559.893 314.127C559.835 313.892 559.774 313.658 559.713 313.425C559.671 313.262 559.631 313.099 559.587 312.938C559.403 312.258 559.203 311.584 558.993 310.916C558.963 310.819 558.934 310.722 558.903 310.626C558.797 310.296 558.688 309.968 558.575 309.641C558.558 309.59 558.541 309.538 558.523 309.487C558.436 309.234 558.344 308.983 558.252 308.731C558.203 308.597 558.155 308.461 558.104 308.327C557.987 308.013 557.866 307.701 557.742 307.391C557.72 307.336 557.699 307.281 557.677 307.226C557.577 306.977 557.474 306.729 557.37 306.482C557.316 306.354 557.264 306.225 557.209 306.097C557.115 305.877 557.016 305.659 556.919 305.44C556.853 305.293 556.789 305.144 556.722 304.997C556.605 304.742 556.484 304.488 556.363 304.235C556.317 304.139 556.272 304.042 556.226 303.945C556.083 303.651 555.936 303.359 555.788 303.067C555.748 302.989 555.709 302.91 555.669 302.832C555.552 302.606 555.432 302.382 555.312 302.158C555.248 302.038 555.185 301.917 555.12 301.797C554.962 301.506 554.8 301.218 554.636 300.931C554.608 300.882 554.581 300.833 554.554 300.785C554.401 300.519 554.244 300.255 554.086 299.992C554.039 299.914 553.993 299.836 553.946 299.758C553.797 299.512 553.644 299.268 553.491 299.024C553.428 298.924 553.366 298.823 553.302 298.723C553.158 298.498 553.011 298.276 552.864 298.054C552.791 297.943 552.719 297.832 552.646 297.723C552.516 297.53 552.383 297.339 552.25 297.147C552.159 297.016 552.069 296.884 551.977 296.754C551.835 296.553 551.69 296.355 551.545 296.156C551.459 296.038 551.373 295.918 551.286 295.801C551.132 295.593 550.975 295.388 550.818 295.184C550.731 295.069 550.644 294.954 550.556 294.841C550.404 294.647 550.25 294.455 550.096 294.263C550.003 294.147 549.91 294.031 549.816 293.916C549.666 293.732 549.513 293.55 549.36 293.368C549.265 293.255 549.171 293.141 549.075 293.029C548.898 292.822 548.717 292.617 548.536 292.413C548.454 292.32 548.372 292.226 548.289 292.134C548.12 291.946 547.948 291.76 547.776 291.574C547.683 291.473 547.59 291.371 547.495 291.271C547.32 291.085 547.143 290.902 546.966 290.719C546.867 290.617 546.77 290.515 546.671 290.414C546.506 290.247 546.34 290.083 546.173 289.918C546.048 289.795 545.923 289.671 545.797 289.549C545.66 289.417 545.521 289.286 545.383 289.155C545.236 289.017 545.09 288.879 544.941 288.742C544.772 288.586 544.602 288.432 544.431 288.278C544.324 288.183 544.218 288.086 544.11 287.991C543.907 287.812 543.702 287.636 543.496 287.46C543.4 287.377 543.303 287.295 543.206 287.213C543.024 287.06 542.84 286.909 542.655 286.758C542.525 286.651 542.395 286.545 542.264 286.439C542.083 286.295 541.901 286.153 541.719 286.011C541.595 285.915 541.472 285.818 541.348 285.723C541.167 285.585 540.985 285.449 540.803 285.313C540.661 285.208 540.519 285.103 540.376 284.999C540.209 284.878 540.041 284.759 539.873 284.64C539.712 284.526 539.552 284.413 539.39 284.301C539.219 284.183 539.048 284.068 538.876 283.952C538.732 283.855 538.588 283.758 538.442 283.662C538.248 283.535 538.053 283.409 537.856 283.284C537.711 283.192 537.566 283.099 537.42 283.008C537.247 282.9 537.073 282.795 536.899 282.689C536.735 282.59 536.571 282.49 536.405 282.393C536.204 282.273 536 282.156 535.797 282.04C535.666 281.965 535.536 281.89 535.404 281.816C535.198 281.701 534.99 281.587 534.781 281.475C534.628 281.392 534.475 281.309 534.32 281.228C534.127 281.125 533.932 281.025 533.737 280.926C533.58 280.846 533.424 280.765 533.266 280.687C533.058 280.583 532.849 280.482 532.64 280.381C532.489 280.308 532.338 280.236 532.187 280.165C531.991 280.073 531.794 279.983 531.597 279.894C531.426 279.816 531.255 279.74 531.083 279.664C530.886 279.578 530.689 279.493 530.491 279.409C530.325 279.339 530.158 279.268 529.99 279.199C529.766 279.107 529.54 279.017 529.313 278.928C529.179 278.875 529.044 278.821 528.908 278.769C528.679 278.68 528.448 278.595 528.217 278.51C528.051 278.449 527.885 278.388 527.718 278.329C527.512 278.256 527.305 278.185 527.098 278.114C526.935 278.059 526.772 278.003 526.608 277.949C526.371 277.871 526.133 277.795 525.894 277.721C525.742 277.673 525.59 277.626 525.438 277.58C525.126 277.486 524.815 277.393 524.501 277.305C524.478 277.298 524.454 277.292 524.431 277.285C524.068 277.184 523.704 277.087 523.338 276.993C523.296 276.983 523.255 276.972 523.213 276.962C521.663 276.571 520.083 276.25 518.476 276.005C518.46 276.003 518.445 276 518.43 275.998C518.042 275.939 517.653 275.884 517.262 275.834C517.114 275.815 516.966 275.798 516.818 275.78C516.754 275.773 516.69 275.764 516.626 275.757C516.604 275.754 516.581 275.752 516.559 275.749C515.54 275.633 514.512 275.546 513.475 275.491L512.835 275.462C501.216 274.987 488.771 274.511 476.217 274.041C440.124 272.688 403.135 271.373 382.307 270.197C381.401 270.146 380.526 270.095 379.683 270.045C378.931 270.002 378.195 269.954 377.474 269.9C375.578 269.76 373.784 269.583 372.087 269.37C370.448 269.164 368.899 268.924 367.438 268.651C366.233 268.427 365.087 268.182 363.998 267.914C363.21 267.72 362.451 267.515 361.722 267.299C360.21 266.851 358.821 266.355 357.548 265.813C356.935 265.553 356.349 265.282 355.789 265C354.148 264.175 352.728 263.26 351.509 262.262C351.316 262.104 351.127 261.945 350.943 261.782C348.297 259.437 346.68 256.656 345.828 253.5C342.767 242.154 349.614 225.961 354.207 207.769C356.508 199.182 403.332 51.334 400.782 42.7295C400.56 41.6472 398.465 38.0207 395.303 37.4287C392.14 36.8368 389.466 39.1877 387.396 41.1885C384.419 43.715 350.292 116.519 290.014 240.396C287.75 245.144 285.387 249.488 282.924 253.434H282.923C276.281 264.073 268.894 271.81 260.657 276.704H260.656C260.426 276.841 260.195 276.977 259.963 277.109H259.962C259.673 277.275 259.383 277.437 259.092 277.596C245.918 284.798 217.117 292.158 194.884 296.933C189.01 298.209 183.444 299.519 178.272 300.645C175.939 301.153 173.685 301.621 171.52 302.034C164.793 303.318 158.915 304.048 154.12 303.623C154.08 303.619 154.039 303.615 153.999 303.611C153.326 303.549 152.674 303.463 152.045 303.353C151.976 303.34 151.907 303.327 151.838 303.314C151.24 303.204 150.662 303.07 150.105 302.912C149.545 302.753 149.007 302.568 148.49 302.358C147.54 301.973 146.663 301.502 145.864 300.931C145.659 300.784 145.458 300.63 145.263 300.47C145.088 300.327 144.918 300.178 144.752 300.024C144.531 299.82 144.317 299.605 144.11 299.381C143.764 299.004 143.439 298.6 143.136 298.167C143.049 298.044 142.964 297.918 142.881 297.79C142.765 297.611 142.654 297.427 142.545 297.239C142.437 297.051 142.331 296.859 142.229 296.662C142.179 296.563 142.129 296.463 142.08 296.362C141.982 296.16 141.887 295.952 141.796 295.74C141.706 295.521 141.625 295.298 141.551 295.07C141.168 293.898 140.986 292.609 141.004 291.203C141.007 290.936 141.018 290.664 141.036 290.389C141.44 284.138 145.54 275.713 153.188 265.074L154.185 263.702C155.081 262.481 156.021 261.231 157.007 259.953C206.545 193.069 255.729 125.887 306.001 59.5449C313.818 49.2287 306.476 34.3828 293.532 34.3828H84.9736Z" fill="#0077FF"/>
</g>
<defs>
<clipPath id="clip0_24_1212">
<rect width="600" height="600" fill="white"/>
</clipPath>
</defs>
</svg>
