<svg width="600" height="600" viewBox="0 0 600 600" fill="none" xmlns="http://www.w3.org/2000/svg">
<g clip-path="url(#clip0_24_1196)">
<rect x="2.08691" y="344.848" width="453.321" height="255.153" rx="81.5235" fill="#0077FF"/>
<rect x="144.593" width="453.321" height="255.153" rx="81.5235" fill="#0077FF"/>
<path d="M360.216 277.187H498.851L386.063 521.56H296.772L247.428 483.964L360.216 277.187Z" fill="#0077FF"/>
<path d="M234.505 34.6162H373.14L260.352 278.99H171.061L121.717 241.394L234.505 34.6162Z" fill="#0077FF"/>
<path d="M293.637 34.6162C306.669 34.6162 314.061 49.5624 306.19 59.9486C255.577 126.741 206.06 194.378 156.186 261.716C143.184 278.556 137.919 290.524 140.872 297.747C146.73 311.408 167.276 304.821 194.319 298.947C216.703 294.14 245.701 286.73 258.963 279.479C271.009 272.931 281.285 260.505 290.095 242.027C350.783 117.31 385.14 44.0112 388.138 41.4675C390.221 39.4531 392.913 37.0867 396.098 37.6828C399.282 38.2788 401.391 41.9306 401.614 43.0198C404.181 51.6828 357.038 200.537 354.723 209.178C346.327 242.431 330.449 269.048 380.372 271.877C407.533 273.506 467.636 275.416 514.427 277.33C541.966 278.457 563.296 301.138 563.296 328.7V518.729C563.296 544.495 542.408 565.383 516.642 565.383H306.669C293.637 565.383 286.245 550.437 294.116 540.051C344.729 473.259 394.245 405.621 444.119 338.283C457.121 321.443 462.387 309.476 459.434 302.253C453.576 288.592 433.03 295.178 405.987 301.052C383.603 305.86 354.605 313.268 341.343 320.52C329.297 327.068 319.021 339.494 310.211 357.972C249.523 482.691 215.165 555.989 212.168 558.532C210.085 560.546 207.393 562.912 204.208 562.316C201.023 561.72 198.915 558.068 198.692 556.979C196.126 548.314 243.267 399.463 245.582 390.821C253.978 357.568 269.857 330.951 219.934 328.122C192.773 326.493 132.67 324.583 85.8786 322.669C58.3402 321.542 37.0098 298.86 37.0098 271.299V81.2703C37.0098 55.504 57.8976 34.6163 83.6639 34.6162H293.637Z" fill="white"/>
<path d="M2.39355 271.299V81.2705C2.39357 36.3859 38.78 0.000235117 83.6641 0V34.6164C57.8978 34.6166 37.01 55.5043 37.01 81.2705V271.299C37.01 298.861 58.3407 321.542 85.8791 322.668C132.671 324.583 192.773 326.493 219.934 328.122C269.857 330.951 253.978 357.569 245.582 390.822C243.265 399.469 196.127 548.312 198.692 556.979C198.915 558.068 201.023 561.72 204.208 562.316C207.393 562.912 210.085 560.546 212.168 558.532C214.978 556.148 245.351 491.577 299.143 380.749L310.212 357.972C318.884 339.783 328.977 327.458 340.78 320.831L341.343 320.52C354.606 313.269 383.603 305.86 405.987 301.053C433.03 295.179 453.576 288.592 459.434 302.253C462.387 309.476 457.121 321.443 444.119 338.283C394.245 405.621 344.729 473.259 294.116 540.052C286.369 550.275 293.41 564.917 306.062 565.372L306.668 565.384H516.643L517.847 565.368C542.656 564.74 562.653 544.743 563.282 519.934L563.297 518.729V328.7C563.297 301.354 542.298 278.811 515.071 277.361L514.427 277.331C467.636 275.416 407.534 273.507 380.373 271.878C330.45 269.049 346.328 242.431 354.723 209.178C357.04 200.532 404.181 51.6838 401.614 43.0201C401.391 41.9309 399.282 38.2791 396.098 37.683C392.913 37.0873 390.221 39.4538 388.137 41.4682C385.137 44.0183 350.78 117.316 290.095 242.028C281.285 260.506 271.009 272.93 258.963 279.479C245.701 286.73 216.703 294.139 194.32 298.947C167.276 304.821 146.731 311.408 140.872 297.747C137.92 290.524 143.184 278.556 156.186 261.716C204.502 196.482 252.482 130.968 301.448 66.2126L306.191 59.9484C314.061 49.5622 306.668 34.6164 293.637 34.6164V0C323.739 0 344.31 24.8061 344.086 51.0419C345.951 47.2449 347.633 43.8438 349.128 40.8544C351.464 36.1851 353.484 32.236 355.092 29.2562C355.874 27.8075 356.758 26.216 357.654 24.7475C358.089 24.0335 358.753 22.9751 359.578 21.8189C359.858 21.4254 361.453 19.1209 364.077 16.5846L364.075 16.5816C365.211 15.483 369.045 11.7072 374.395 8.61833C380.128 5.30761 389.858 1.4773 401.892 3.55436L402.467 3.65715L403.052 3.77102C415.266 6.2435 422.873 13.6576 426.366 17.7748C428.412 20.1875 430.084 22.6774 431.409 25.075C432.245 26.5892 433.985 29.9108 435.124 34.3433C436.467 39.5184 436.351 43.8466 436.317 45.1374C436.26 47.3166 436.047 49.2748 435.861 50.7022C435.482 53.6017 434.891 56.6771 434.288 59.509C433.054 65.2962 431.234 72.5275 429.137 80.3666C424.91 96.1701 419.07 116.245 413.17 136.009C407.251 155.838 401.187 175.636 396.476 190.961C394.11 198.656 392.106 205.158 390.606 210.054C389.858 212.498 389.254 214.48 388.807 215.964C388.398 217.32 388.216 217.946 388.171 218.103C386.986 222.756 385.712 227.175 384.603 230.981C383.912 233.355 383.307 235.43 382.764 237.341C409.657 238.941 468.504 240.806 515.842 242.742C562.331 244.644 597.913 282.972 597.913 328.7V518.729C597.913 563.614 561.527 600 516.643 600H306.668C276.566 600 255.995 575.193 256.219 548.957C254.354 552.755 252.673 556.157 251.177 559.147C248.842 563.816 246.823 567.764 245.214 570.744C244.432 572.193 243.547 573.784 242.652 575.253C242.216 575.967 241.552 577.026 240.728 578.182C240.448 578.575 238.853 580.879 236.228 583.415L236.231 583.418C235.093 584.519 231.258 588.294 225.908 591.383C220.082 594.746 210.136 598.643 197.84 596.342H197.839C185.283 593.991 177.489 586.407 173.941 582.224C171.894 579.811 170.221 577.321 168.897 574.923C168.104 573.487 166.497 570.423 165.361 566.325C165.348 566.28 165.336 566.235 165.324 566.191C165.283 566.042 165.241 565.892 165.202 565.74C163.835 560.528 163.955 556.159 163.989 554.861C164.046 552.682 164.259 550.723 164.446 549.296C164.825 546.397 165.415 543.322 166.019 540.49C167.253 534.703 169.073 527.471 171.17 519.631C175.397 503.828 181.237 483.754 187.136 463.99C193.055 444.162 199.119 424.364 203.83 409.039C206.195 401.344 208.199 394.842 209.699 389.946C210.448 387.502 211.052 385.52 211.499 384.036C211.908 382.678 212.088 382.053 212.134 381.896C213.319 377.243 214.594 372.824 215.702 369.018C216.394 366.644 216.999 364.569 217.541 362.657C190.648 361.057 131.802 359.193 84.4642 357.257C37.9751 355.355 2.39355 317.027 2.39355 271.299ZM401.63 337.509C394.277 339.234 386.756 341.145 379.794 343.143C368.314 346.438 360.957 349.248 357.949 350.893L357.913 350.913L357.877 350.932C354.776 352.618 348.642 357.805 341.458 372.871L341.399 372.995L341.338 373.119C315.276 426.678 294.111 470.669 278.136 503.779C319.64 448.733 360.449 393.212 401.63 337.509ZM322.171 96.2176C280.665 151.265 239.855 206.787 198.673 262.491C206.028 260.766 213.55 258.855 220.512 256.857C231.992 253.562 239.35 250.751 242.357 249.106L242.393 249.086L242.429 249.067C245.53 247.381 251.665 242.195 258.848 227.129L258.908 227.005L258.968 226.881C285.031 173.32 306.196 129.328 322.171 96.2176ZM293.637 0V34.6164H83.6641V0H293.637Z" fill="#0077FF"/>
</g>
<defs>
<clipPath id="clip0_24_1196">
<rect width="600" height="600" fill="white"/>
</clipPath>
</defs>
</svg>
