<svg width="600" height="600" viewBox="0 0 600 600" fill="none" xmlns="http://www.w3.org/2000/svg">
<g filter="url(#filter0_d_24_1206)">
<path d="M357.925 276.757H491.62L382.851 512.422H296.743L249.156 476.166L357.925 276.757Z" fill="#D8D8D8"/>
<path d="M236.693 42.8311H370.387L261.619 278.496H175.51L127.924 242.24L236.693 42.8311Z" fill="#D8D8D8"/>
<path d="M293.718 26.1396C320.147 26.1396 335.005 56.388 319.127 77.3418C270.391 141.656 222.748 206.735 174.578 271.772L174.479 271.907L174.376 272.039C169.302 278.61 166.049 283.717 164.169 287.508C171.394 286.848 180.62 284.424 194.396 281.432L194.415 281.428L194.435 281.423C204.997 279.154 216.993 276.298 227.803 273.195C238.982 269.987 247.625 266.864 252.272 264.323L252.308 264.304C259.611 260.333 267.524 251.842 275.235 235.668L275.264 235.607L275.293 235.548C304.545 175.434 327.426 127.763 343.412 94.6973C351.388 78.1991 357.676 65.2787 362.16 56.3135C364.393 51.8493 366.247 48.2289 367.671 45.5908C368.372 44.2919 369.065 43.0528 369.704 42.0039C370.018 41.4892 370.428 40.841 370.9 40.1787C371.099 39.8999 371.928 38.7118 373.248 37.4395C374.298 36.4241 376.723 34.075 379.944 32.2148C383.287 30.2847 388.558 28.2594 394.974 29.2744L395.599 29.3818L396.231 29.5098C402.694 30.9177 406.885 34.9082 408.987 37.3867C410.204 38.8209 411.196 40.2997 411.969 41.6992C412.524 42.7049 413.527 44.6634 414.101 47.1367C414.688 49.6096 414.648 51.7184 414.627 52.542C414.593 53.8511 414.462 55.1153 414.322 56.1816C414.041 58.3358 413.575 60.8058 413.031 63.3564C411.931 68.5174 410.263 75.1672 408.265 82.6377C404.252 97.6393 398.676 116.813 392.997 135.836C387.309 154.89 381.478 173.93 376.938 188.699C374.663 196.1 372.721 202.397 371.271 207.127C370.547 209.49 369.956 211.433 369.513 212.904C369.291 213.64 369.112 214.238 368.977 214.701C368.909 214.932 368.856 215.117 368.815 215.26C368.795 215.331 368.779 215.387 368.768 215.429C368.763 215.447 368.759 215.461 368.756 215.472C367.678 219.723 366.5 223.812 365.417 227.532C364.287 231.413 363.292 234.789 362.453 237.993C360.681 244.761 360.267 248.489 360.497 250.592C360.59 251.443 360.479 251.131 360.964 251.438C362.561 252.447 367.016 254.233 377.294 254.91L378.307 254.973L378.334 254.974L378.361 254.976C404.354 256.535 461.843 258.358 507.322 260.219C543.017 261.679 570.459 291.097 570.459 326.436V509.693C570.459 543.76 542.843 571.376 508.776 571.376H306.285C279.856 571.376 264.998 541.128 280.876 520.174L290.002 508.106C335.57 447.725 380.265 386.715 425.425 325.742L425.524 325.608L426.705 324.064C431.166 318.169 434.088 313.522 435.832 310.007C428.607 310.667 419.382 313.092 405.607 316.084L405.588 316.088L405.569 316.093C395.006 318.361 383.01 321.217 372.2 324.319C361.021 327.528 352.378 330.651 347.73 333.192L347.713 333.201L347.696 333.211C340.393 337.181 332.479 345.673 324.768 361.848L324.739 361.908L324.71 361.968C295.458 422.082 272.577 469.754 256.591 502.819C248.615 519.317 242.327 532.237 237.843 541.202C235.61 545.666 233.756 549.287 232.332 551.925C231.631 553.224 230.938 554.464 230.299 555.513C229.985 556.027 229.575 556.676 229.103 557.338C228.904 557.617 228.074 558.804 226.754 560.076C225.703 561.092 223.279 563.442 220.057 565.302C216.605 567.294 211.101 569.386 204.404 568.133C197.582 566.856 193.186 562.687 191.016 560.128C189.799 558.694 188.807 557.215 188.034 555.815C187.482 554.816 186.487 552.873 185.912 550.418C185.314 547.928 185.354 545.801 185.376 544.973C185.41 543.664 185.541 542.398 185.681 541.332C185.962 539.178 186.429 536.708 186.973 534.157C188.073 528.996 189.741 522.346 191.739 514.876C195.752 499.874 201.328 480.702 207.006 461.679C212.694 442.625 218.525 423.586 223.065 408.816C225.34 401.416 227.281 395.119 228.73 390.389C229.455 388.025 230.046 386.083 230.489 384.611C230.711 383.875 230.89 383.277 231.025 382.814C231.093 382.584 231.147 382.399 231.188 382.256L231.235 382.087C232.316 377.82 233.499 373.716 234.586 369.983C235.716 366.103 236.711 362.726 237.55 359.522C239.322 352.754 239.736 349.026 239.506 346.923C239.413 346.071 239.524 346.384 239.038 346.077C237.39 345.036 232.696 343.166 221.696 342.543L221.642 342.539C195.649 340.98 138.159 339.157 92.6807 337.297C56.986 335.837 29.5441 306.419 29.5439 271.08V87.8223C29.5442 53.7559 57.1605 26.14 91.2266 26.1396H293.718Z" fill="#494949" stroke="#D8D8D8" stroke-width="33.383"/>
</g>
<defs>
<filter id="filter0_d_24_1206" x="4.12346" y="9.44824" width="583.027" height="589.288" filterUnits="userSpaceOnUse" color-interpolation-filters="sRGB">
<feFlood flood-opacity="0" result="BackgroundImageFix"/>
<feColorMatrix in="SourceAlpha" type="matrix" values="0 0 0 0 0 0 0 0 0 0 0 0 0 0 0 0 0 0 127 0" result="hardAlpha"/>
<feOffset dx="-8.72908" dy="10.6689"/>
<feComposite in2="hardAlpha" operator="out"/>
<feColorMatrix type="matrix" values="0 0 0 0 0.568004 0 0 0 0 0.568004 0 0 0 0 0.568004 0 0 0 0.66 0"/>
<feBlend mode="normal" in2="BackgroundImageFix" result="effect1_dropShadow_24_1206"/>
<feBlend mode="normal" in="SourceGraphic" in2="effect1_dropShadow_24_1206" result="shape"/>
</filter>
</defs>
</svg>
