<svg width="600" height="600" viewBox="0 0 600 600" fill="none" xmlns="http://www.w3.org/2000/svg">
<g clip-path="url(#clip0_24_1161)">
<path fill-rule="evenodd" clip-rule="evenodd" d="M74.0384 284.501C210.419 225.272 301.21 185.917 346.801 166.823C476.557 112.66 503.834 103.309 521.368 102.919C525.265 102.919 533.837 103.698 539.682 108.374C544.358 112.271 545.527 117.336 546.307 121.233C547.086 125.13 547.865 133.312 547.086 139.547C540.072 213.582 509.679 393.216 494.092 475.824C487.468 510.893 474.609 522.583 462.14 523.752C434.864 526.09 414.212 505.828 388.105 488.683C346.801 461.796 323.811 445.041 283.676 418.544C237.306 388.15 267.31 371.395 293.807 344.119C300.821 337.105 420.446 228 422.784 218.258C423.174 217.089 423.174 212.413 420.446 210.076C417.719 207.738 413.822 208.517 410.705 209.296C406.419 210.076 340.956 253.717 213.537 339.832C194.833 352.691 178.078 358.926 162.881 358.536C146.126 358.146 114.173 349.184 90.0145 341.391C60.79 332.039 37.4104 326.974 39.3587 310.608C40.5276 302.035 52.2174 293.463 74.0384 284.501Z" fill="#0077FF"/>
</g>
<defs>
<clipPath id="clip0_24_1161">
<rect width="600" height="600" fill="none"/>
</clipPath>
</defs>
</svg>
