<svg width="600" height="600" viewBox="0 0 600 600" fill="none" xmlns="http://www.w3.org/2000/svg">
<g clip-path="url(#clip0_24_1153)">
<g clip-path="url(#clip1_24_1153)">
<path d="M300.125 600.25C465.88 600.25 600.25 465.88 600.25 300.125C600.25 134.371 465.88 0 300.125 0C134.371 0 0 134.371 0 300.125C0 465.88 134.371 600.25 300.125 600.25Z" fill="#0077FF"/>
<path fill-rule="evenodd" clip-rule="evenodd" d="M135.693 296.877C223.157 258.893 281.383 233.654 310.621 221.409C393.836 186.673 411.329 180.676 422.574 180.426C425.073 180.426 430.571 180.926 434.319 183.924C437.318 186.423 438.068 189.672 438.567 192.171C439.067 194.67 439.567 199.918 439.067 203.916C434.569 251.396 415.077 366.598 405.081 419.576C400.833 442.067 392.587 449.564 384.59 450.313C367.097 451.813 353.853 438.818 337.11 427.823C310.621 410.58 295.877 399.834 270.137 382.842C240.4 363.35 259.642 352.604 276.635 335.111C281.133 330.613 357.851 260.642 359.35 254.395C359.6 253.645 359.6 250.647 357.851 249.147C356.102 247.648 353.603 248.148 351.604 248.647C348.855 249.147 306.872 277.136 225.156 332.363C213.161 340.609 202.416 344.607 192.67 344.358C181.924 344.108 161.433 338.36 145.939 333.362C127.197 327.365 112.203 324.116 113.453 313.62C114.202 308.123 121.699 302.625 135.693 296.877Z" fill="white"/>
</g>
</g>
<defs>
<clipPath id="clip0_24_1153">
<rect width="600" height="600" fill="white"/>
</clipPath>
<clipPath id="clip1_24_1153">
<rect width="600" height="600" fill="white"/>
</clipPath>
</defs>
</svg>
